<svg aria-hidden="true" style="position: absolute; width: 0; height: 0; overflow: hidden;" version="1.1" xmlns="http://www.w3.org/2000/svg" xmlns:xlink="http://www.w3.org/1999/xlink">
<defs>
<symbol id="gear" viewBox="0 0 32 32">
<path d="M13.534 13.228c-2.438 0-4.421 1.983-4.421 4.421s1.983 4.421 4.421 4.421 4.421-1.983 4.421-4.421c0-2.438-1.983-4.421-4.421-4.421zM13.534 20.808c-1.742 0-3.159-1.417-3.159-3.159s1.417-3.159 3.159-3.159c1.742 0 3.159 1.417 3.159 3.159s-1.417 3.159-3.159 3.159z"></path>
<path d="M13.534 11.245c-3.531 0-6.404 2.873-6.404 6.404s2.873 6.404 6.404 6.404c3.531 0 6.404-2.873 6.404-6.404s-2.873-6.404-6.404-6.404zM13.534 22.791c-2.835 0-5.141-2.306-5.141-5.142s2.306-5.142 5.142-5.142c2.835 0 5.142 2.306 5.142 5.142s-2.306 5.142-5.142 5.142z"></path>
<path d="M30.761 7.493h-1.407c-0.145-0.459-0.33-0.905-0.552-1.333l0.995-0.995c0.247-0.247 0.247-0.646 0-0.893l-2.677-2.677c-0.247-0.246-0.646-0.246-0.893 0l-0.995 0.995c-0.428-0.223-0.873-0.407-1.332-0.552v-1.407c0-0.349-0.282-0.631-0.631-0.631h-3.787c-0.349 0-0.631 0.283-0.631 0.631v1.407c-0.459 0.145-0.904 0.33-1.333 0.552l-0.995-0.995c-0.247-0.246-0.646-0.246-0.893 0l-2.52 2.52h-1.444c-0.349 0-0.631 0.283-0.631 0.631v1.679c-0.32 0.071-0.638 0.156-0.95 0.254l-0.839-1.453c-0.084-0.145-0.222-0.251-0.383-0.294s-0.334-0.021-0.479 0.063l-3.235 1.867c-0.145 0.084-0.251 0.222-0.294 0.383s-0.021 0.334 0.063 0.479l0.841 1.456c-0.241 0.221-0.473 0.453-0.694 0.694l-1.456-0.841c-0.145-0.084-0.317-0.106-0.479-0.063s-0.3 0.149-0.383 0.294l-1.867 3.235c-0.174 0.302-0.071 0.688 0.231 0.862l1.453 0.839c-0.098 0.312-0.183 0.63-0.254 0.95h-1.679c-0.349 0-0.631 0.283-0.631 0.631v3.735c0 0.349 0.283 0.631 0.631 0.631h1.679c0.071 0.32 0.156 0.638 0.254 0.95l-1.453 0.839c-0.145 0.084-0.251 0.222-0.294 0.383s-0.021 0.334 0.063 0.479l1.867 3.235c0.174 0.302 0.56 0.405 0.862 0.231l1.456-0.841c0.221 0.241 0.453 0.473 0.694 0.694l-0.841 1.456c-0.084 0.145-0.106 0.317-0.063 0.479s0.149 0.3 0.294 0.383l3.235 1.867c0.302 0.174 0.688 0.071 0.862-0.231l0.839-1.453c0.312 0.098 0.63 0.183 0.95 0.254v1.679c0 0.349 0.283 0.631 0.631 0.631h3.735c0.349 0 0.631-0.282 0.631-0.631v-1.679c0.32-0.071 0.638-0.156 0.95-0.254l0.839 1.453c0.174 0.302 0.56 0.405 0.862 0.231l3.235-1.867c0.145-0.084 0.251-0.222 0.294-0.383s0.021-0.334-0.063-0.479l-0.841-1.456c0.241-0.221 0.473-0.453 0.694-0.694l1.456 0.841c0.302 0.174 0.688 0.071 0.862-0.231l1.868-3.235c0.084-0.145 0.106-0.317 0.063-0.479s-0.149-0.3-0.294-0.383l-1.453-0.839c0.098-0.312 0.183-0.63 0.254-0.95h1.679c0.349 0 0.631-0.282 0.631-0.631v-1.031c0.018-0.014 0.035-0.030 0.052-0.046l2.677-2.678c0.246-0.246 0.246-0.646-0-0.893l-0.995-0.995c0.222-0.427 0.407-0.873 0.552-1.332h1.407c0.349 0 0.631-0.283 0.631-0.631v-3.787c0-0.349-0.283-0.631-0.631-0.631zM25.806 18.885h-1.566c-0.307 0-0.569 0.221-0.622 0.523-0.104 0.6-0.262 1.192-0.47 1.76-0.105 0.288 0.011 0.61 0.277 0.764l1.355 0.782-1.236 2.141-1.358-0.784c-0.265-0.153-0.603-0.094-0.8 0.141-0.389 0.465-0.823 0.898-1.288 1.288-0.235 0.197-0.295 0.534-0.142 0.8l0.784 1.358-2.142 1.236-0.782-1.355c-0.154-0.266-0.476-0.383-0.764-0.277-0.567 0.208-1.159 0.366-1.759 0.47-0.302 0.052-0.523 0.315-0.523 0.622v1.566h-2.473v-1.566c0-0.307-0.221-0.569-0.523-0.622-0.6-0.104-1.192-0.262-1.759-0.47-0.288-0.105-0.61 0.011-0.764 0.277l-0.782 1.355-2.142-1.236 0.784-1.358c0.153-0.265 0.094-0.603-0.141-0.8-0.465-0.39-0.899-0.823-1.288-1.288-0.197-0.235-0.534-0.295-0.8-0.141l-1.358 0.784-1.236-2.141 1.355-0.782c0.266-0.153 0.383-0.476 0.277-0.764-0.208-0.567-0.366-1.159-0.47-1.759-0.052-0.302-0.315-0.523-0.622-0.523h-1.566v-2.473h1.566c0.307 0 0.569-0.221 0.622-0.523 0.104-0.6 0.262-1.192 0.47-1.759 0.105-0.288-0.011-0.61-0.277-0.764l-1.355-0.782 1.236-2.142 1.358 0.784c0.266 0.153 0.603 0.094 0.8-0.142 0.389-0.465 0.823-0.899 1.288-1.288 0.235-0.197 0.295-0.534 0.141-0.8l-0.784-1.358 2.141-1.236 0.782 1.355c0.153 0.266 0.475 0.383 0.764 0.277 0.567-0.208 1.159-0.366 1.76-0.47 0.302-0.052 0.523-0.315 0.523-0.622v-1.566h2.473v1.566c0 0.307 0.221 0.569 0.523 0.622 0.6 0.104 1.192 0.262 1.759 0.47 0.288 0.105 0.61-0.011 0.764-0.277l0.782-1.355 2.142 1.236-0.784 1.358c-0.153 0.265-0.094 0.603 0.142 0.8 0.465 0.389 0.898 0.823 1.288 1.288 0.197 0.235 0.534 0.295 0.8 0.142l1.358-0.784 1.236 2.142-1.355 0.782c-0.266 0.153-0.383 0.476-0.277 0.764 0.208 0.567 0.366 1.159 0.47 1.759 0.052 0.302 0.315 0.523 0.622 0.523h1.566v2.473zM30.13 11.279h-1.252c-0.289 0-0.541 0.197-0.612 0.477-0.169 0.67-0.434 1.31-0.788 1.902-0.149 0.248-0.11 0.566 0.095 0.771l0.886 0.886-1.39 1.391v-0.924c0-0.349-0.282-0.631-0.631-0.631h-1.679c-0.071-0.32-0.156-0.638-0.254-0.95l1.453-0.839c0.145-0.084 0.251-0.222 0.294-0.383s0.021-0.334-0.063-0.479l-1.868-3.235c-0.174-0.302-0.56-0.405-0.862-0.231l-1.456 0.841c-0.221-0.241-0.453-0.473-0.694-0.694l0.841-1.456c0.084-0.145 0.106-0.317 0.063-0.479s-0.149-0.3-0.294-0.383l-3.235-1.868c-0.145-0.084-0.317-0.106-0.479-0.063s-0.3 0.149-0.383 0.294l-0.839 1.453c-0.312-0.098-0.63-0.183-0.95-0.254v-1.679c0-0.349-0.283-0.631-0.631-0.631h-0.506l1.181-1.181 0.886 0.886c0.204 0.205 0.522 0.244 0.77 0.096 0.595-0.356 1.235-0.621 1.903-0.789 0.28-0.071 0.477-0.323 0.477-0.612v-1.252h2.524v1.252c0 0.289 0.197 0.541 0.477 0.612 0.668 0.168 1.308 0.433 1.903 0.789 0.248 0.148 0.566 0.109 0.77-0.096l0.886-0.886 1.785 1.785-0.886 0.886c-0.205 0.205-0.244 0.522-0.095 0.77 0.355 0.593 0.62 1.233 0.788 1.903 0.071 0.281 0.323 0.477 0.612 0.477h1.252v2.525z"></path>
</symbol>
<symbol id="engine" viewBox="0 0 32 32">
<path d="M16 0c-8.8 0-16 7.2-16 16s7.2 16 16 16c8.8 0 16-7.2 16-16s-7.2-16-16-16zM16 30.933c-8.213 0-14.933-6.72-14.933-14.933s6.72-14.933 14.933-14.933c8.213 0 14.933 6.72 14.933 14.933s-6.72 14.933-14.933 14.933z"></path>
<path d="M18.133 19.733c0-1.173-0.96-2.133-2.133-2.133s-2.133 0.96-2.133 2.133c0 1.173 0.96 2.133 2.133 2.133s2.133-0.96 2.133-2.133zM16 20.8c-0.587 0-1.067-0.48-1.067-1.067s0.48-1.067 1.067-1.067c0.587 0 1.067 0.48 1.067 1.067s-0.48 1.067-1.067 1.067z"></path>
<path d="M17.6 16c0 1.173 0.96 2.133 2.133 2.133s2.133-0.96 2.133-2.133c0-1.173-0.96-2.133-2.133-2.133s-2.133 0.96-2.133 2.133zM20.8 16c0 0.587-0.48 1.067-1.067 1.067s-1.067-0.48-1.067-1.067c0-0.587 0.48-1.067 1.067-1.067s1.067 0.48 1.067 1.067z"></path>
<path d="M13.867 12.267c0 1.173 0.96 2.133 2.133 2.133s2.133-0.96 2.133-2.133c0-1.173-0.96-2.133-2.133-2.133s-2.133 0.96-2.133 2.133zM16 11.2c0.587 0 1.067 0.48 1.067 1.067s-0.48 1.067-1.067 1.067c-0.587 0-1.067-0.48-1.067-1.067s0.48-1.067 1.067-1.067z"></path>
<path d="M12.267 13.867c-1.173 0-2.133 0.96-2.133 2.133s0.96 2.133 2.133 2.133c1.173 0 2.133-0.96 2.133-2.133s-0.96-2.133-2.133-2.133zM12.267 17.067c-0.587 0-1.067-0.48-1.067-1.067s0.48-1.067 1.067-1.067c0.587 0 1.067 0.48 1.067 1.067s-0.48 1.067-1.067 1.067z"></path>
<path d="M2.667 13.973c1.493 0.64 3.093 0.96 4.693 0.96h1.333c0.267 0 0.48-0.16 0.48-0.373 0.587-2.613 2.667-4.693 5.28-5.28 0.267-0.053 0.427-0.267 0.427-0.533v-1.333c0-1.653-0.32-3.2-0.96-4.693-0.107-0.213-0.32-0.373-0.587-0.32-5.493 1.067-9.92 5.493-10.987 10.987-0.053 0.267 0.107 0.48 0.32 0.587zM13.173 3.52c0.427 1.227 0.693 2.507 0.693 3.84v0.907c-2.72 0.747-4.853 2.88-5.6 5.6h-0.907c-1.333 0-2.613-0.213-3.84-0.693 1.067-4.747 4.907-8.587 9.653-9.653z"></path>
<path d="M17.493 9.227c2.613 0.587 4.693 2.667 5.28 5.28 0.053 0.267 0.267 0.427 0.533 0.427h1.333c1.6 0 3.2-0.32 4.64-1.013 0.213-0.107 0.373-0.32 0.32-0.587-1.067-5.493-5.493-9.92-10.987-10.987-0.267-0.053-0.48 0.107-0.587 0.32-0.64 1.493-0.96 3.093-0.96 4.693v1.333c0 0.267 0.16 0.48 0.427 0.533zM18.187 7.413c0-1.333 0.213-2.613 0.693-3.84 4.747 1.067 8.533 4.853 9.6 9.6-1.227 0.427-2.507 0.693-3.84 0.693h-0.907c-0.747-2.72-2.88-4.853-5.547-5.547v-0.907h0z"></path>
<path d="M14.56 22.773c-2.613-0.587-4.693-2.667-5.28-5.28-0.053-0.267-0.267-0.427-0.533-0.427h-1.333c-1.653 0-3.2 0.32-4.693 0.96-0.213 0.107-0.373 0.32-0.32 0.587 1.067 5.493 5.493 9.92 10.987 10.987h0.107c0.213 0 0.373-0.107 0.533-0.267 0.64-1.493 0.96-3.093 0.96-4.693v-1.333c-0-0.267-0.16-0.48-0.427-0.533zM13.813 24.587c0 1.333-0.213 2.613-0.693 3.84-4.747-1.067-8.533-4.853-9.6-9.6 1.227-0.427 2.507-0.693 3.787-0.747h0.907c0.747 2.72 2.88 4.853 5.6 5.6v0.907h-0z"></path>
<path d="M29.333 17.973c-1.493-0.64-3.093-0.96-4.693-0.96h-1.333c-0.267 0-0.48 0.16-0.533 0.427-0.587 2.613-2.667 4.693-5.28 5.28-0.267 0.053-0.427 0.267-0.427 0.533v1.333c0 1.653 0.32 3.2 0.96 4.693 0.053 0.213 0.267 0.32 0.48 0.32 0.053 0 0.107 0 0.16-0.053 5.493-1.067 9.92-5.493 10.987-10.987 0.053-0.267-0.107-0.48-0.32-0.587zM18.827 28.48c-0.427-1.227-0.693-2.507-0.693-3.84v-0.907c2.72-0.747 4.853-2.88 5.547-5.547h0.907c1.333 0 2.613 0.213 3.84 0.693-1.067 4.747-4.853 8.533-9.6 9.6z"></path>
</symbol>
<symbol id="seats" viewBox="0 0 32 32">
<path d="M30.807 22.235c-1.844-0.747-3.778-1.354-5.759-1.818-0.291-3.544-1.781-6.733-4.087-8.653l4.62-4.536c0.112-0.11 0.169-0.221 0.169-0.386s-0.056-0.276-0.169-0.386l-1.573-1.545c-0.225-0.221-0.562-0.221-0.787 0l-4.887 4.815c-0.040-0.148-0.058-0.302-0.058-0.457v-0.938c1.349-0.772 2.248-2.207 2.248-3.807 0-0.019-0.001-0.037-0.002-0.055s0.002-0.037 0.002-0.055c0-2.428-2.023-4.414-4.496-4.414s-4.496 1.986-4.496 4.414c0 0.019 0.001 0.037 0.002 0.055s-0.002 0.037-0.002 0.055c0 1.545 0.899 3.034 2.248 3.807v0.938c0 0.607-0.393 1.214-1.011 1.49-3.16 1.552-5.37 5.282-5.706 9.581-2.067 0.487-4.038 1.15-5.87 1.95-0.169 0.055-0.337 0.221-0.337 0.441s0.056 0.386 0.225 0.497l2.248 1.49c0.169 0.11 0.337 0.11 0.506 0.055 1.103-0.361 2.171-0.677 3.211-0.949 0.075 3.105 0.683 5.889 1.734 7.901 0.112 0.166 0.281 0.276 0.506 0.276h2.81c0.169 0 0.45-0.11 0.506-0.276s0.112-0.386 0-0.552c-0.674-1.269-1.011-3.090-1.068-5.352 2.922-0.552 6.125-0.552 8.991 0-0.056 2.262-0.393 4.083-1.068 5.352-0.112 0.165-0.112 0.386 0 0.552s0.337 0.276 0.506 0.276h2.81c0.225 0 0.393-0.11 0.45-0.276 1.053-2.016 1.662-4.808 1.735-7.92 1.058 0.276 2.144 0.599 3.267 0.969 0.056 0.055 0.112 0.055 0.169 0.055 0.112 0 0.225-0.055 0.281-0.166l2.248-1.49c0.169-0.11 0.225-0.276 0.225-0.497 0-0.166-0.168-0.386-0.337-0.442zM23.839 20.138c-2.304-0.471-4.65-0.741-6.966-0.809-1.186-0.041-2.368-0.031-3.536 0.031l6.85-6.725c2.023 1.655 3.372 4.414 3.653 7.503zM14.576 7.399c-0.003-0.002-0.006-0.004-0.009-0.006-0.062-0.029-0.123-0.060-0.182-0.093-0.934-0.516-1.596-1.455-1.711-2.548-0-0.002-0-0.005-0.001-0.007-0.005-0.047-0.008-0.095-0.011-0.142-0.001-0.012-0.001-0.025-0.002-0.037-0.002-0.051-0.004-0.101-0.004-0.153 0-1.821 1.517-3.31 3.372-3.31s3.372 1.49 3.315 3.31c0 1.269-0.73 2.428-1.911 2.979-0.052 0.026-0.098 0.055-0.138 0.086-0.392 0.157-0.819 0.245-1.267 0.245-0.519 0-1.012-0.117-1.452-0.325zM13.275 11.641c1.012-0.497 1.63-1.435 1.63-2.483v-0.472c0.36 0.092 0.736 0.141 1.124 0.141 0.368 0 0.725-0.045 1.068-0.128v0.459c0 0.441 0.169 0.938 0.393 1.324l-9.216 9.048c0.506-3.586 2.416-6.621 5.001-7.89zM22.434 30.897h-1.63c0.562-1.435 0.843-3.31 0.843-5.517 0-0.276-0.169-0.497-0.45-0.552-3.259-0.717-7.024-0.717-10.34 0-0.281 0.055-0.45 0.276-0.45 0.552 0 2.207 0.281 4.083 0.843 5.517h-1.63c-0.899-1.876-1.405-4.414-1.461-7.283 0.225-0.055 0.393-0.11 0.618-0.166 4.889-1.048 9.272-1.048 14.105-0.055 0.337 0.055 0.674 0.165 1.011 0.221-0.056 2.869-0.562 5.407-1.461 7.283zM28.335 23.669c-3.984-1.279-7.521-1.987-11.009-2.126-2.903-0.13-5.762 0.133-8.827 0.802-0.337 0.11-0.731 0.165-1.068 0.276-0.009 0.005-0.018 0.009-0.027 0.014-1.173 0.289-2.377 0.634-3.626 1.034l-1.18-0.772c1.574-0.67 3.345-1.195 5.128-1.576 0.014 0.008 0.028 0.018 0.042 0.032 0.056-0.055 0.112-0.055 0.169-0.055 0.012-0.012 0.024-0.020 0.035-0.027 0.044-0.009 0.089-0.019 0.133-0.028 0.112-0.055 0.225-0.11 0.281-0.166l10.227-9.986c0.055-0.054 0.096-0.114 0.125-0.178l4.877-4.788 0.787 0.772-13.037 12.8c-0.169 0.165-0.225 0.386-0.112 0.607s0.337 0.331 0.562 0.331c0.007-0.001 0.015-0.001 0.022-0.002 0.011 0.001 0.023 0.002 0.034 0.002 2.436-0.229 4.95-0.245 7.438-0.023 1.458 0.136 2.909 0.351 4.343 0.642 0.232 0.049 0.464 0.1 0.694 0.153h0.022c1.736 0.386 3.441 0.884 5.091 1.49l-1.124 0.772z"></path>
</symbol>
</defs>
</svg>
